<svg xmlns="http://www.w3.org/2000/svg" viewBox="0 0 999.33 974.66"><defs><style>.a{fill:#fff;}</style></defs><title>GitHub-Mark-Light-vector</title><path class="a" d="M513.61,25C237.69,25,13.94,248.7,13.94,524.66c0,220.76,143.17,408.06,341.7,474.13,25,4.62,34.14-10.84,34.14-24,0-11.91-.46-51.28-.68-93-139,30.23-168.34-59-168.34-59C198,765,165.29,749.66,165.29,749.66c-45.34-31,3.42-30.37,3.42-30.37,50.17,3.52,76.59,51.5,76.59,51.5,44.56,76.38,116.89,54.3,145.41,41.53C395.19,780,408.14,758,422.43,745.5c-111-12.63-227.66-55.48-227.66-246.94,0-54.55,19.52-99.13,51.49-134.12C241.07,351.86,224,301,251.1,232.21c0,0,42-13.42,137.44,51.23,39.86-11.07,82.61-16.62,125.07-16.82,42.46.19,85.24,5.75,125.17,16.82,95.37-64.65,137.27-51.23,137.27-51.23,27.2,68.83,10.09,119.65,4.9,132.24,32,35,51.42,79.57,51.42,134.12,0,191.92-116.89,234.17-228.16,246.54,17.92,15.51,33.89,45.91,33.89,92.53,0,66.86-.57,120.66-.57,137.12,0,13.3,9,28.88,34.32,24,198.43-66.15,341.42-253.38,341.42-474.07C1013.27,248.7,789.56,25,513.61,25Z" transform="translate(-13.94 -25)"/><path class="a" d="M203.19,742.41c-1.1,2.49-5,3.23-8.56,1.53s-5.66-5-4.48-7.51,5-3.26,8.61-1.56,5.7,5.05,4.44,7.54ZM197,737.85" transform="translate(-13.94 -25)"/><path class="a" d="M223.44,765c-2.38,2.21-7,1.18-10.21-2.31s-3.88-8.15-1.46-10.38,7-1.17,10.25,2.31,3.91,8.15,1.42,10.38Zm-4.77-5.12" transform="translate(-13.94 -25)"/><path class="a" d="M243.14,793.76c-3.06,2.13-8.07.14-11.17-4.31s-3.06-9.78.07-11.91,8-.21,11.17,4.19,3.05,9.85-.07,12Zm0,0" transform="translate(-13.94 -25)"/><path class="a" d="M270.12,821.56c-2.74,3-8.57,2.21-12.84-1.92s-5.58-9.74-2.84-12.77,8.65-2.17,12.94,1.91,5.66,9.78,2.74,12.77Zm0,0" transform="translate(-13.94 -25)"/><path class="a" d="M307.36,837.71c-1.21,3.91-6.83,5.69-12.48,4s-9.35-6.3-8.21-10.25,6.82-5.79,12.52-4,9.35,6.25,8.18,10.24Zm0,0" transform="translate(-13.94 -25)"/><path class="a" d="M348.25,840.7c.14,4.12-4.66,7.54-10.6,7.61s-10.81-3.2-10.88-7.26,4.69-7.54,10.67-7.64,10.81,3.2,10.81,7.29Zm0,0" transform="translate(-13.94 -25)"/><path class="a" d="M386.3,834.22c.71,4-3.42,8.15-9.32,9.24s-11.17-1.42-11.91-5.41,3.48-8.25,9.28-9.32,11.2,1.39,12,5.48Zm0,0" transform="translate(-13.94 -25)"/></svg>