<svg xmlns="http://www.w3.org/2000/svg" viewBox="0 0 413.58 57.16"><defs><style>.a{fill:#fff;}</style></defs><title>PL-white</title><path class="a" d="M317.27,518.21V536H305.81V480.24h12.94a18.14,18.14,0,0,1,13.64,5.91,18.62,18.62,0,0,1,5.27,13.15A18.21,18.21,0,0,1,331.75,513a18.42,18.42,0,0,1-13,5.2Zm0-10.76a7.89,7.89,0,0,0,6.89-3.59,8.08,8.08,0,0,0,1.41-4.57,7.83,7.83,0,0,0-3.59-6.82,8.24,8.24,0,0,0-4.71-1.48Z" transform="translate(-305.81 -479.54)"/><path class="a" d="M351.93,480.24h16.45L382.1,536H369.93l-2-9.21-15.47.07-2,9.14H338.22Zm8.23,10.83-5.41,25h10.83Z" transform="translate(-305.81 -479.54)"/><path class="a" d="M384.77,491V480.24h33.75V491H407.34v45.07H395.88V491Z" transform="translate(-305.81 -479.54)"/><path class="a" d="M437.08,480.24a18.14,18.14,0,0,1,13.64,5.91A18.62,18.62,0,0,1,456,499.3a18.89,18.89,0,0,1-9.63,16.45L459.93,536H447.07l-11.46-18.35V536H424.14V480.24ZM435.61,491v16.45a7.89,7.89,0,0,0,6.89-3.59,8.08,8.08,0,0,0,1.41-4.57,7.83,7.83,0,0,0-3.59-6.82A8.24,8.24,0,0,0,435.61,491Z" transform="translate(-305.81 -479.54)"/><path class="a" d="M464.5,480.24H476V536H464.5Z" transform="translate(-305.81 -479.54)"/><path class="a" d="M523.5,516.31,535,519.13q-3.87,10.69-13.36,15a28.21,28.21,0,0,1-12.09,2.53q-14.06,0-21.87-9.84a28.86,28.86,0,0,1-6.26-18.63A29.41,29.41,0,0,1,488,489q7.94-9.42,21.59-9.49,13.43,0,21,9.63a28.15,28.15,0,0,1,4.15,7.31l-11.53,2.81Q520,492,512.67,490.58a17.36,17.36,0,0,0-3.09-.28q-9,0-13.5,7.31a19.94,19.94,0,0,0-2.81,10.55q0,8.16,4.92,13.29A15.31,15.31,0,0,0,509.57,526a13.86,13.86,0,0,0,12.73-7.31A19,19,0,0,0,523.5,516.31Z" transform="translate(-305.81 -479.54)"/><path class="a" d="M539.32,480.24h11.46v21.52l14.48-21.52h11.46L558.65,507.1,578.83,536H566l-15.19-22.29V536H539.32Z" transform="translate(-305.81 -479.54)"/><path class="a" d="M613.43,525.24h22.36V536H602V480.24h11.46Z" transform="translate(-305.81 -479.54)"/><path class="a" d="M652.24,513.08v12.16h24.54V536H640.85V480.24h34.52V491H652.24v11.39h22.22v10.69Z" transform="translate(-305.81 -479.54)"/><path class="a" d="M694.85,513.08v12.16h24.54V536H683.46V480.24H718V491H694.85v11.39h22.22v10.69Z" transform="translate(-305.81 -479.54)"/></svg>